<?xml version="1.0" encoding="UTF-8" standalone="no"?>
<!DOCTYPE svg PUBLIC "-//W3C//DTD SVG 1.1//EN" "http://www.w3.org/Graphics/SVG/1.1/DTD/svg11.dtd">
<svg width="100%" height="100%" viewBox="0 0 1080 1080" version="1.1" xmlns="http://www.w3.org/2000/svg" xmlns:xlink="http://www.w3.org/1999/xlink" xml:space="preserve" xmlns:serif="http://www.serif.com/" style="fill-rule:evenodd;clip-rule:evenodd;stroke-linejoin:round;stroke-miterlimit:2;">
    <g transform="matrix(1,0,0,1,0,-85.8424)">
        <circle cx="540" cy="625.842" r="540" style="fill:white;"/>
    </g>
    <g transform="matrix(1.96116,0,0,1.96116,-43.7161,66.5555)">
        <g id="g1018-2-3">
            <g id="g1274-9-5-7">
                <g id="g1176-2-9-2-6">
                    <path d="M298.698,103.48C215.781,103.48 148.462,170.799 148.462,253.717C148.462,336.634 215.781,403.953 298.698,403.953C381.616,403.953 448.935,336.634 448.935,253.717C448.935,170.799 381.616,103.48 298.698,103.48ZM298.698,126.698C368.802,126.698 425.717,183.613 425.717,253.717C425.717,323.82 368.802,380.736 298.698,380.736C228.595,380.736 171.68,323.82 171.68,253.717C171.68,183.613 228.595,126.698 298.698,126.698Z"/>
                    <g id="g1021-5-0-4-5" transform="matrix(1,0,0,1,-449.452,0)">
                        <circle id="path929-9-3-0-8" cx="746.938" cy="332.631" r="6.864"/>
                        <path id="path997-3-9-7-6" d="M747.269,342.318C747.163,342.318 747.057,342.329 746.953,342.347C746.939,342.346 746.925,342.345 746.911,342.345L737.499,342.345C736.304,342.343 735.443,343.492 735.782,344.638L745.2,376.605C745.458,377.476 746.329,378.015 747.224,377.856L747.227,377.856C748.033,377.873 748.751,377.351 748.98,376.577L758.398,344.61C758.736,343.465 757.877,342.316 756.682,342.318L747.269,342.318Z" style="fill-rule:nonzero;"/>
                    </g>
                    <path d="M256.961,174.49C252.854,174.49 249.135,176.917 247.482,180.677C245.829,184.437 246.555,188.819 249.332,191.845L289.871,236.028C291.832,238.165 294.6,239.382 297.501,239.382C300.402,239.382 303.169,238.165 305.131,236.028L345.672,191.845C348.449,188.819 349.174,184.437 347.521,180.677C345.868,176.917 342.149,174.49 338.042,174.49L256.961,174.49ZM280.516,195.2L314.487,195.2C314.487,195.2 297.501,213.711 297.501,213.711L280.516,195.2Z"/>
                    <path id="path1047-0-7-8-2-9" d="M293.125,25.312C280.301,47.551 286.507,67.487 292.507,74.424C298.507,81.362 298.839,90.795 297.339,95.295C295.839,99.795 292.708,105.96 288.625,111.375C284.785,116.467 283.596,126.329 285.24,137.167C287.877,154.55 299.831,167.371 299.831,167.371C299.831,167.371 295.293,154.061 295.193,141.267C295.094,128.472 293.337,122.241 303.811,109.778C314.285,97.316 312.561,77.826 301.027,65.761C289.492,53.696 293.125,25.312 293.125,25.312Z" style="fill-rule:nonzero;"/>
                    <path id="path1070-5-4-8-1-2-1" d="M174.091,112.125C174.091,112.125 146.78,132.675 130.339,157.468C113.899,182.261 104.138,203.181 100.2,227.556C96.263,251.931 97.2,273.494 102.45,295.806C107.7,318.119 121.2,346.431 128.325,357.119C135.45,367.806 140.138,372.119 140.138,372.119C140.138,372.119 145.575,383.744 154.763,390.869C163.95,397.994 169.669,401.369 179.794,402.494C189.919,403.619 207.919,404.931 224.419,396.119C240.919,387.306 257.325,373.9 268.763,358.525C280.2,343.15 297.638,305.837 297.638,305.837C297.638,305.837 315.075,343.15 326.513,358.525C337.95,373.9 354.357,387.306 370.857,396.119C387.357,404.931 405.357,403.619 415.482,402.494C425.607,401.369 431.325,397.994 440.513,390.869C449.7,383.744 455.138,372.119 455.138,372.119C455.138,372.119 459.825,367.806 466.95,357.119C474.075,346.431 487.575,318.119 492.825,295.806C498.075,273.494 499.013,251.931 495.075,227.556C491.138,203.181 481.376,182.261 464.936,157.468C448.496,132.675 421.184,112.125 421.184,112.125L356.218,217.395L356.218,235.293C356.218,235.293 374.647,244.84 387.242,252.927C399.838,261.015 410.578,272.814 426.355,289.917C442.132,307.021 442.928,337.78 439.879,354.353C436.829,370.926 424.233,378.88 414.819,382.062C405.406,385.244 382.088,381.567 372.923,375.3C363.688,368.985 354.627,365.092 335.004,334.863C315.382,304.634 309.02,274.803 309.02,274.803L286.256,274.803C286.256,274.803 279.893,304.634 260.271,334.863C240.649,365.092 231.587,368.985 222.352,375.3C213.188,381.567 189.87,385.244 180.456,382.062C171.043,378.88 158.446,370.926 155.397,354.353C152.348,337.78 153.143,307.021 168.921,289.917C184.698,272.814 195.438,261.015 208.033,252.927C220.629,244.84 239.057,235.293 239.057,235.293L239.057,217.395L174.091,112.125ZM169.575,143.556L218.325,222.681C185.888,239.369 167.138,262.619 152.888,279.494C138.638,296.369 133.95,325.056 133.95,325.056C133.95,325.056 122.755,300.758 119.7,276.681C116.073,248.096 116.829,238.187 126.45,209.181C138.591,172.582 169.575,143.556 169.575,143.556ZM425.7,143.556C425.7,143.556 456.685,172.582 468.825,209.181C478.447,238.187 479.202,248.096 475.575,276.681C472.52,300.758 461.325,325.056 461.325,325.056C461.325,325.056 456.638,296.369 442.388,279.494C428.138,262.619 409.388,239.369 376.95,222.681L425.7,143.556Z" style="fill-rule:nonzero;"/>
                </g>
            </g>
        </g>
    </g>
</svg>
